<?xml version="1.0" standalone="no"?>
<!DOCTYPE svg PUBLIC "-//W3C//DTD SVG 20010904//EN"
 "http://www.w3.org/TR/2001/REC-SVG-20010904/DTD/svg10.dtd">
<svg version="1.0" xmlns="http://www.w3.org/2000/svg"
 width="1080.000000pt" height="1080.000000pt" viewBox="0 0 1080.000000 1080.000000"
 preserveAspectRatio="xMidYMid meet">
<metadata>
Created by potrace 1.14, written by Peter Selinger 2001-2017
</metadata>
<g transform="translate(0.000000,1080.000000) scale(0.100000,-0.100000)"
fill="#000000" stroke="none">
<path d="M2880 10359 c-833 -79 -1575 -548 -2003 -1267 -488 -820 -489 -1845
0 -2664 226 -379 533 -685 914 -913 602 -359 1338 -458 2019 -271 564 155
1049 487 1406 963 416 553 595 1297 478 1982 -173 1019 -923 1838 -1916 2095
-293 76 -609 103 -898 75z"/>
<path d="M8835 9764 c-325 -49 -642 -238 -839 -498 -29 -39 -593 -870 -1252
-1846 -1263 -1870 -1285 -1905 -1339 -2095 -57 -200 -69 -431 -31 -621 52
-260 194 -517 386 -697 446 -419 1119 -473 1632 -130 92 62 231 194 301 286
114 150 2453 3626 2499 3713 162 306 191 679 79 1012 -66 198 -167 360 -320
513 -291 289 -708 426 -1116 363z"/>
<path d="M2875 4789 c-829 -79 -1569 -549 -1998 -1267 -201 -337 -319 -704
-357 -1107 -6 -67 -10 -558 -10 -1262 l0 -1153 2610 0 2611 0 -4 1223 c-3
1333 -1 1267 -63 1545 -188 847 -811 1561 -1629 1867 -357 133 -782 190 -1160
154z"/>
</g>
</svg>
